<?xml version="1.0" encoding="utf-8"?>
<!-- Generator: Adobe Illustrator 23.1.0, SVG Export Plug-In . SVG Version: 6.00 Build 0)  -->
<svg version="1.1" id="Layer_1" xmlns="http://www.w3.org/2000/svg" xmlns:xlink="http://www.w3.org/1999/xlink" x="0px" y="0px"
	 viewBox="0 0 500 300" style="enable-background:new 0 0 500 300;" xml:space="preserve">
<style type="text/css">
	.st0{fill:#D60A2E;}
	.st1{fill:#FED953;}
</style>
<path class="st0" d="M0,0h500v300H0V0z"/>
<g>
	<path class="st1" d="M69.5,53.6l13.3,26.9l29.7,4.3L91,105.7l5.1,29.6l-26.5-14l-26.5,14l5.1-29.6L26.6,84.8l29.7-4.3L69.5,53.6z"
		/>
	<path class="st1" d="M148.1,105.2l5.3,10.7l11.9,1.7l-8.6,8.4l2,11.8l-10.6-5.6l-10.6,5.6l2-11.8l-8.6-8.4l11.9-1.7L148.1,105.2z"
		/>
	<path class="st1" d="M141.9,58.2l9.7,7l11.3-4l-3.7,11.4l7.3,9.5l-12,0l-6.8,9.9l-3.7-11.4l-11.5-3.4l9.7-7L141.9,58.2z"/>
	<path class="st1" d="M126.3,25.8l-2.3,11.8l8.4,8.5l-11.9,1.5l-5.5,10.6L110,47.4l-11.8-2l8.7-8.2l-1.8-11.8l10.5,5.8L126.3,25.8z"
		/>
	<path class="st1" d="M126.3,146.4l-2.3,11.8l8.4,8.5l-11.9,1.5l-5.5,10.6l-5.1-10.8l-11.8-2l8.7-8.2l-1.8-11.8l10.5,5.8
		L126.3,146.4z"/>
</g>
</svg>
