<?xml version="1.0" encoding="utf-8"?>
<!-- Generator: Adobe Illustrator 23.1.0, SVG Export Plug-In . SVG Version: 6.00 Build 0)  -->
<svg version="1.1" id="Layer_1" xmlns="http://www.w3.org/2000/svg" xmlns:xlink="http://www.w3.org/1999/xlink" x="0px" y="0px"
	 viewBox="0 0 500 300" style="enable-background:new 0 0 500 300;" xml:space="preserve">
<style type="text/css">
	.st0{fill:#41479B;}
	.st1{fill:#FFE15A;}
</style>
<rect class="st0" width="500" height="300"/>
<g>
	<path class="st1" d="M250.3,26l3.4,10.1l10.7,0.1c1.4,0,2,1.8,0.8,2.6l-8.6,6.3l3.2,10.2c0.4,1.3-1.1,2.4-2.2,1.6l-8.7-6.2
		l-8.7,6.2c-1.1,0.8-2.6-0.3-2.2-1.6l3.2-10.2l-8.6-6.3c-1.1-0.8-0.5-2.6,0.8-2.6l10.7-0.1l3.4-10.1C248,24.7,249.9,24.7,250.3,26z"
		/>
	<path class="st1" d="M250.3,243.7l3.4,10.1l10.7,0.1c1.4,0,2,1.8,0.8,2.6l-8.6,6.3l3.2,10.2c0.4,1.3-1.1,2.4-2.2,1.6l-8.7-6.2
		l-8.7,6.2c-1.1,0.8-2.6-0.3-2.2-1.6l3.2-10.2l-8.6-6.3c-1.1-0.8-0.5-2.6,0.8-2.6l10.7-0.1l3.4-10.1
		C248,242.4,249.9,242.4,250.3,243.7z"/>
	<path class="st1" d="M359.1,134.9l3.4,10.1l10.7,0.1c1.4,0,2,1.8,0.8,2.6l-8.6,6.3l3.2,10.2c0.4,1.3-1.1,2.4-2.2,1.6l-8.7-6.2
		l-8.7,6.2c-1.1,0.8-2.6-0.3-2.2-1.6l3.2-10.2l-8.6-6.3c-1.1-0.8-0.5-2.6,0.8-2.6L353,145l3.4-10.1
		C356.8,133.6,358.7,133.6,359.1,134.9z"/>
	<path class="st1" d="M141.5,134.9l3.4,10.1l10.7,0.1c1.4,0,2,1.8,0.8,2.6l-8.6,6.3l3.2,10.2c0.4,1.3-1.1,2.4-2.2,1.6l-8.7-6.2
		l-8.7,6.2c-1.1,0.8-2.6-0.3-2.2-1.6l3.2-10.2l-8.6-6.3c-1.1-0.8-0.5-2.6,0.8-2.6l10.7-0.1l3.4-10.1
		C139.2,133.6,141,133.6,141.5,134.9z"/>
	<path class="st1" d="M157.8,78l3.4,10.1l10.7,0.1c1.4,0,2,1.8,0.8,2.6l-8.6,6.3l3.2,10.2c0.4,1.3-1.1,2.4-2.2,1.6l-8.7-6.2
		l-8.7,6.2c-1.1,0.8-2.6-0.3-2.2-1.6l3.2-10.2l-8.6-6.3c-1.1-0.8-0.5-2.6,0.8-2.6l10.7-0.1l3.4-10.1C155.5,76.7,157.4,76.7,157.8,78
		z"/>
	<path class="st1" d="M346.3,186.9l3.4,10.1l10.7,0.1c1.4,0,2,1.8,0.8,2.6l-8.6,6.3l3.2,10.2c0.4,1.3-1.1,2.4-2.2,1.6l-8.7-6.2
		l-8.7,6.2c-1.1,0.8-2.6-0.3-2.2-1.6l3.2-10.2l-8.6-6.3c-1.1-0.8-0.5-2.6,0.8-2.6l10.7-0.1l3.4-10.1
		C344,185.6,345.9,185.6,346.3,186.9z"/>
	<path class="st1" d="M306.5,38.2l3.4,10.1l10.7,0.1c1.4,0,2,1.8,0.8,2.6l-8.6,6.3l3.2,10.2c0.4,1.3-1.1,2.4-2.2,1.6l-8.7-6.2
		l-8.7,6.2c-1.1,0.8-2.6-0.3-2.2-1.6l3.2-10.2l-8.6-6.3c-1.1-0.8-0.5-2.6,0.8-2.6l10.7-0.1l3.4-10.1C304.2,36.9,306,36.9,306.5,38.2
		z"/>
	<path class="st1" d="M197.6,226.7l3.4,10.1l10.7,0.1c1.4,0,2,1.8,0.8,2.6l-8.6,6.3l3.2,10.2c0.4,1.3-1.1,2.4-2.2,1.6l-8.7-6.2
		l-8.7,6.2c-1.1,0.8-2.6-0.3-2.2-1.6l3.2-10.2l-8.6-6.3c-1.1-0.8-0.5-2.6,0.8-2.6l10.7-0.1l3.4-10.1
		C195.4,225.4,197.2,225.4,197.6,226.7z"/>
	<path class="st1" d="M343.6,78l-3.4,10.1l-10.7,0.1c-1.4,0-2,1.8-0.8,2.6l8.6,6.3l-3.2,10.2c-0.4,1.3,1.1,2.4,2.2,1.6l8.7-6.2
		l8.7,6.2c1.1,0.8,2.6-0.3,2.2-1.6l-3.2-10.2l8.6-6.3c1.1-0.8,0.5-2.6-0.8-2.6l-10.7-0.1L346.3,78C345.9,76.7,344,76.7,343.6,78z"/>
	<path class="st1" d="M155.1,186.9l-3.4,10.1l-10.7,0.1c-1.4,0-2,1.8-0.8,2.6l8.6,6.3l-3.2,10.2c-0.4,1.3,1.1,2.4,2.2,1.6l8.7-6.2
		l8.7,6.2c1.1,0.8,2.6-0.3,2.2-1.6l-3.2-10.2l8.6-6.3c1.1-0.8,0.5-2.6-0.8-2.6l-10.7-0.1l-3.4-10.1
		C157.4,185.6,155.5,185.6,155.1,186.9z"/>
	<path class="st1" d="M194.9,38.2l-3.4,10.1l-10.7,0.1c-1.4,0-2,1.8-0.8,2.6l8.6,6.3l-3.2,10.2c-0.4,1.3,1.1,2.4,2.2,1.6l8.7-6.2
		l8.7,6.2c1.1,0.8,2.6-0.3,2.2-1.6L204,57.4l8.6-6.3c1.1-0.8,0.5-2.6-0.8-2.6L201,48.3l-3.4-10.1C197.2,36.9,195.4,36.9,194.9,38.2z
		"/>
	<path class="st1" d="M303.7,226.7l-3.4,10.1l-10.7,0.1c-1.4,0-2,1.8-0.8,2.6l8.6,6.3l-3.2,10.2c-0.4,1.3,1.1,2.4,2.2,1.6l8.7-6.2
		l8.7,6.2c1.1,0.8,2.6-0.3,2.2-1.6l-3.2-10.2l8.6-6.3c1.1-0.8,0.5-2.6-0.8-2.6l-10.7-0.1l-3.4-10.1
		C306,225.4,304.2,225.4,303.7,226.7z"/>
</g>
</svg>
