<?xml version="1.0" encoding="utf-8"?>
<!-- Generator: Adobe Illustrator 23.1.0, SVG Export Plug-In . SVG Version: 6.00 Build 0)  -->
<svg version="1.1" id="Capa_1" xmlns="http://www.w3.org/2000/svg" xmlns:xlink="http://www.w3.org/1999/xlink" x="0px" y="0px"
	 viewBox="0 0 500 300" style="enable-background:new 0 0 500 300;" xml:space="preserve">
<style type="text/css">
	.st0{fill:#F0F0F0;}
	.st1{fill:#D80027;}
	.st2{fill:#0052B4;}
</style>
<rect y="0" class="st0" width="500" height="300"/>
<polygon class="st1" points="281.3,0 218.8,0 218.8,121.9 0,121.9 0,178.1 218.8,178.1 218.8,300 281.3,300 281.3,178.1 500,178.1 
	500,121.9 281.3,121.9 "/>
<g>
	<polygon class="st2" points="384.6,202.2 500,259.9 500,202.2 	"/>
	<polygon class="st2" points="304.3,202.2 500,300 500,272.3 359.7,202.2 	"/>
	<polygon class="st2" points="447.9,300 304.3,228.2 304.3,300 	"/>
</g>
<polygon class="st0" points="304.3,202.2 500,300 500,272.3 359.7,202.2 "/>
<polygon class="st1" points="304.3,202.2 500,300 500,272.3 359.7,202.2 "/>
<g>
	<polygon class="st2" points="88.2,202.2 0,246.3 0,202.2 	"/>
	<polygon class="st2" points="195.7,214.6 195.7,300 24.9,300 	"/>
</g>
<polygon class="st1" points="140.3,202.2 0,272.3 0,300 0,300 195.7,202.2 "/>
<g>
	<polygon class="st2" points="115.4,97.8 0,40.1 0,97.8 	"/>
	<polygon class="st2" points="195.7,97.8 0,0 0,27.7 140.3,97.8 	"/>
	<polygon class="st2" points="52.1,0 195.7,71.8 195.7,0 	"/>
</g>
<polygon class="st0" points="195.7,97.8 0,0 0,27.7 140.3,97.8 "/>
<polygon class="st1" points="195.7,97.8 0,0 0,27.7 140.3,97.8 "/>
<g>
	<polygon class="st2" points="411.8,97.8 500,53.7 500,97.8 	"/>
	<polygon class="st2" points="304.3,85.4 304.3,0 475.1,0 	"/>
</g>
<polygon class="st1" points="359.7,97.8 500,27.7 500,0 500,0 304.3,97.8 "/>
</svg>
