<?xml version="1.0" encoding="utf-8"?>
<!-- Generator: Adobe Illustrator 23.1.0, SVG Export Plug-In . SVG Version: 6.00 Build 0)  -->
<svg version="1.1" id="Слой_1" xmlns="http://www.w3.org/2000/svg" xmlns:xlink="http://www.w3.org/1999/xlink" x="0px" y="0px"
	 viewBox="0 0 1000 600" style="enable-background:new 0 0 1000 600;" xml:space="preserve">
<style type="text/css">
	.st0{fill:#B22234;}
	.st1{stroke:#FFFFFF;stroke-width:50;stroke-miterlimit:10;}
	.st2{fill:#3C3B6E;}
	.st3{fill:#FFFFFF;}
</style>
<rect class="st0" width="1000" height="600"/>
<path class="st1" d="M0,69.2h1000 M1000,161.5H0 M0,253.8h1000 M1000,346.2H0 M0,438.5h1000 M1000,530.8H0"/>
<rect class="st2" width="453.4" height="321.2"/>
<g>
	<g id="s18">
		<g id="s9">
			<g id="s5">
				<g id="s4">
					<path id="s" class="st3" d="M37.8,13.8L48.6,47L20.3,26.5h34.9L27,47L37.8,13.8z"/>
					<g>
						<path class="st3" d="M37.8,78l10.8,33.2L20.3,90.7h34.9L27,111.2L37.8,78z"/>
					</g>
					<g>
						<path class="st3" d="M37.8,142.3l10.8,33.2l-28.2-20.5h34.9L27,175.5L37.8,142.3z"/>
					</g>
					<g>
						<path class="st3" d="M37.8,206.5l10.8,33.2l-28.2-20.5h34.9L27,239.7L37.8,206.5z"/>
					</g>
				</g>
				<g>
					<path class="st3" d="M37.8,270.8L48.6,304l-28.2-20.5h34.9L27,304L37.8,270.8z"/>
				</g>
			</g>
			<g>
				<g>
					<path class="st3" d="M75.6,45.9l10.8,33.2L58.1,58.6H93L64.8,79.1L75.6,45.9z"/>
					<g>
						<path class="st3" d="M75.6,110.1l10.8,33.2l-28.2-20.5H93l-28.2,20.5L75.6,110.1z"/>
					</g>
					<g>
						<path class="st3" d="M75.6,174.4l10.8,33.2l-28.2-20.5H93l-28.2,20.5L75.6,174.4z"/>
					</g>
					<g>
						<path class="st3" d="M75.6,238.6l10.8,33.2l-28.2-20.5H93l-28.2,20.5L75.6,238.6z"/>
					</g>
				</g>
			</g>
		</g>
		<g>
			<g>
				<g>
					<g>
						<path class="st3" d="M113.4,13.8L124.1,47L95.9,26.5h34.9L102.6,47L113.4,13.8z"/>
						<g>
							<path class="st3" d="M113.4,78l10.8,33.2L95.9,90.7h34.9l-28.2,20.5L113.4,78z"/>
						</g>
						<g>
							<path class="st3" d="M113.4,142.3l10.8,33.2l-28.2-20.5h34.9l-28.2,20.5L113.4,142.3z"/>
						</g>
						<g>
							<path class="st3" d="M113.4,206.5l10.8,33.2l-28.2-20.5h34.9l-28.2,20.5L113.4,206.5z"/>
						</g>
					</g>
					<g>
						<path class="st3" d="M113.4,270.8l10.8,33.2l-28.2-20.5h34.9L102.6,304L113.4,270.8z"/>
					</g>
				</g>
				<g>
					<g>
						<path class="st3" d="M151.1,45.9l10.8,33.2l-28.2-20.5h34.9l-28.2,20.5L151.1,45.9z"/>
						<g>
							<path class="st3" d="M151.1,110.1l10.8,33.2l-28.2-20.5h34.9l-28.2,20.5L151.1,110.1z"/>
						</g>
						<g>
							<path class="st3" d="M151.1,174.4l10.8,33.2l-28.2-20.5h34.9l-28.2,20.5L151.1,174.4z"/>
						</g>
						<g>
							<path class="st3" d="M151.1,238.6l10.8,33.2l-28.2-20.5h34.9l-28.2,20.5L151.1,238.6z"/>
						</g>
					</g>
				</g>
			</g>
		</g>
	</g>
	<g>
		<g>
			<g>
				<g>
					<g>
						<path class="st3" d="M188.9,13.8L199.7,47l-28.2-20.5h34.9L178.1,47L188.9,13.8z"/>
						<g>
							<path class="st3" d="M188.9,78l10.8,33.2l-28.2-20.5h34.9l-28.2,20.5L188.9,78z"/>
						</g>
						<g>
							<path class="st3" d="M188.9,142.3l10.8,33.2l-28.2-20.5h34.9l-28.2,20.5L188.9,142.3z"/>
						</g>
						<g>
							<path class="st3" d="M188.9,206.5l10.8,33.2l-28.2-20.5h34.9l-28.2,20.5L188.9,206.5z"/>
						</g>
					</g>
					<g>
						<path class="st3" d="M188.9,270.8l10.8,33.2l-28.2-20.5h34.9L178.1,304L188.9,270.8z"/>
					</g>
				</g>
				<g>
					<g>
						<path class="st3" d="M226.7,45.9l10.8,33.2l-28.2-20.5h34.9l-28.2,20.5L226.7,45.9z"/>
						<g>
							<path class="st3" d="M226.7,110.1l10.8,33.2l-28.2-20.5h34.9l-28.2,20.5L226.7,110.1z"/>
						</g>
						<g>
							<path class="st3" d="M226.7,174.4l10.8,33.2l-28.2-20.5h34.9l-28.2,20.5L226.7,174.4z"/>
						</g>
						<g>
							<path class="st3" d="M226.7,238.6l10.8,33.2l-28.2-20.5h34.9l-28.2,20.5L226.7,238.6z"/>
						</g>
					</g>
				</g>
			</g>
			<g>
				<g>
					<g>
						<g>
							<path class="st3" d="M264.5,13.8L275.3,47L247,26.5h34.9L253.7,47L264.5,13.8z"/>
							<g>
								<path class="st3" d="M264.5,78l10.8,33.2L247,90.7h34.9l-28.2,20.5L264.5,78z"/>
							</g>
							<g>
								<path class="st3" d="M264.5,142.3l10.8,33.2L247,154.9h34.9l-28.2,20.5L264.5,142.3z"/>
							</g>
							<g>
								<path class="st3" d="M264.5,206.5l10.8,33.2L247,219.2h34.9l-28.2,20.5L264.5,206.5z"/>
							</g>
						</g>
						<g>
							<path class="st3" d="M264.5,270.8l10.8,33.2L247,283.4h34.9L253.7,304L264.5,270.8z"/>
						</g>
					</g>
					<g>
						<g>
							<path class="st3" d="M302.3,45.9l10.8,33.2l-28.2-20.5h34.9l-28.2,20.5L302.3,45.9z"/>
							<g>
								<path class="st3" d="M302.3,110.1l10.8,33.2l-28.2-20.5h34.9l-28.2,20.5L302.3,110.1z"/>
							</g>
							<g>
								<path class="st3" d="M302.3,174.4l10.8,33.2l-28.2-20.5h34.9l-28.2,20.5L302.3,174.4z"/>
							</g>
							<g>
								<path class="st3" d="M302.3,238.6l10.8,33.2l-28.2-20.5h34.9l-28.2,20.5L302.3,238.6z"/>
							</g>
						</g>
					</g>
				</g>
			</g>
		</g>
	</g>
	<g>
		<g>
			<g>
				<g>
					<path class="st3" d="M340.1,13.8L350.8,47l-28.2-20.5h34.9L329.3,47L340.1,13.8z"/>
					<g>
						<path class="st3" d="M340.1,78l10.8,33.2l-28.2-20.5h34.9l-28.2,20.5L340.1,78z"/>
					</g>
					<g>
						<path class="st3" d="M340.1,142.3l10.8,33.2l-28.2-20.5h34.9l-28.2,20.5L340.1,142.3z"/>
					</g>
					<g>
						<path class="st3" d="M340.1,206.5l10.8,33.2l-28.2-20.5h34.9l-28.2,20.5L340.1,206.5z"/>
					</g>
				</g>
				<g>
					<path class="st3" d="M340.1,270.8l10.8,33.2l-28.2-20.5h34.9L329.3,304L340.1,270.8z"/>
				</g>
			</g>
			<g>
				<g>
					<path class="st3" d="M377.8,45.9l10.8,33.2l-28.2-20.5h34.9L367,79.1L377.8,45.9z"/>
					<g>
						<path class="st3" d="M377.8,110.1l10.8,33.2l-28.2-20.5h34.9L367,143.3L377.8,110.1z"/>
					</g>
					<g>
						<path class="st3" d="M377.8,174.4l10.8,33.2l-28.2-20.5h34.9L367,207.6L377.8,174.4z"/>
					</g>
					<g>
						<path class="st3" d="M377.8,238.6l10.8,33.2l-28.2-20.5h34.9L367,271.8L377.8,238.6z"/>
					</g>
				</g>
			</g>
		</g>
	</g>
	<g>
		<g>
			<g>
				<path class="st3" d="M415.6,13.8L426.4,47l-28.2-20.5h34.9L404.8,47L415.6,13.8z"/>
				<g>
					<path class="st3" d="M415.6,78l10.8,33.2l-28.2-20.5h34.9l-28.2,20.5L415.6,78z"/>
				</g>
				<g>
					<path class="st3" d="M415.6,142.3l10.8,33.2l-28.2-20.5h34.9l-28.2,20.5L415.6,142.3z"/>
				</g>
				<g>
					<path class="st3" d="M415.6,206.5l10.8,33.2l-28.2-20.5h34.9l-28.2,20.5L415.6,206.5z"/>
				</g>
			</g>
			<g>
				<path class="st3" d="M415.6,270.8l10.8,33.2l-28.2-20.5h34.9L404.8,304L415.6,270.8z"/>
			</g>
		</g>
	</g>
</g>
</svg>
